{
    "asset" : {
        "generator" : "Khronos glTF Blender I/O v1.0.5",
        "version" : "2.0"
    },
    "extensionsUsed" : [
        "KHR_lights_punctual"
    ],
    "extensionsRequired" : [
        "KHR_lights_punctual"
    ],
    "extensions" : {
        "KHR_lights_punctual" : {
            "lights" : [
                {
                    "color" : [
                        1,
                        1,
                        1
                    ],
                    "intensity" : 1000,
                    "type" : "point",
                    "name" : "Light"
                }
            ]
        }
    },
    "scene" : 0,
    "scenes" : [
        {
            "extras" : {
                "glTF2ExportSettings" : {
                    "export_extras" : 1,
                    "export_format" : "GLTF_EMBEDDED",
                    "export_lights" : 1
                }
            },
            "name" : "Scene",
            "nodes" : [
                1,
                2,
                6,
                9
            ]
        }
    ],
    "nodes" : [
        {
            "extensions" : {
                "KHR_lights_punctual" : {
                    "light" : 0
                }
            },
            "name" : "Light_Orientation",
            "rotation" : [
                -0.7071067690849304,
                0,
                0,
                0.7071067690849304
            ]
        },
        {
            "children" : [
                0
            ],
            "name" : "Light",
            "rotation" : [
                0.16907575726509094,
                0.7558803558349609,
                -0.27217137813568115,
                0.570947527885437
            ],
            "translation" : [
                -4.214735984802246,
                5.903861999511719,
                8.017301559448242
            ]
        },
        {
            "name" : "Camera",
            "rotation" : [
                0.483536034822464,
                0.33687159419059753,
                -0.20870360732078552,
                0.7804827094078064
            ],
            "translation" : [
                7.358891487121582,
                4.958309173583984,
                6.925790786743164
            ]
        },
        {
            "extras" : {
                "view" : "state1",
                "mouseEvent" : "true"
            },
            "mesh" : 0,
            "name" : "state1",
            "scale" : [
                0.6249998807907104,
                0.4000000059604645,
                0.6249998807907104
            ]
        },
        {
            "mesh" : 1,
            "name" : "state2",
            "scale" : [
                0.6249998807907104,
                0.4000000059604645,
                0.6249998807907104
            ]
        },
        {
            "mesh" : 2,
            "name" : "state3",
            "scale" : [
                0.6249998807907104,
                0.4000000059604645,
                0.6249998807907104
            ]
        },
        {
            "children" : [
                3,
                4,
                5
            ],
            "extras" : {
                "state" : "state1"
            },
            "name" : "Actor",
            "scale" : [
                0.800000011920929,
                0.5,
                0.800000011920929
            ],
            "translation" : [
                3,
                0,
                0
            ]
        },
        {
            "extras" : {
                "mouseEvent" : "true"
            },
            "mesh" : 3,
            "name" : "appear1",
            "scale" : [
                0.6249998807907104,
                0.4000000059604645,
                0.6249998807907104
            ]
        },
        {
            "mesh" : 4,
            "name" : "appear2",
            "scale" : [
                0.6249998807907104,
                0.4000000059604645,
                0.6249998807907104
            ]
        },
        {
            "children" : [
                7,
                8
            ],
            "extras" : {
                "appear1" : 0.1,
                "appear2" : 0.9,
                "colorParams" : "true"
            },
            "name" : "Cameleon",
            "scale" : [
                0.800000011920929,
                0.5,
                0.800000011920929
            ]
        }
    ],
    "materials" : [
        {
            "doubleSided" : true,
            "name" : "thermo_mat_cold",
            "pbrMetallicRoughness" : {
                "baseColorFactor" : [
                    0.05176461488008499,
                    0.3574345111846924,
                    0.8000000715255737,
                    1
                ],
                "metallicFactor" : 0,
                "roughnessFactor" : 0.5
            }
        },
        {
            "doubleSided" : true,
            "name" : "thermo_mat_warm",
            "pbrMetallicRoughness" : {
                "baseColorFactor" : [
                    0.8000000715255737,
                    0.11717746406793594,
                    0.1466873586177826,
                    1
                ],
                "metallicFactor" : 0,
                "roughnessFactor" : 0.5
            }
        },
        {
            "doubleSided" : true,
            "name" : "thermo_mat_other",
            "pbrMetallicRoughness" : {
                "baseColorFactor" : [
                    0.4246200919151306,
                    0.4511525332927704,
                    0.09994076937437057,
                    1
                ],
                "metallicFactor" : 0,
                "roughnessFactor" : 0.5
            }
        },
        {
            "doubleSided" : true,
            "name" : "appear_mat1",
            "pbrMetallicRoughness" : {
                "baseColorFactor" : [
                    0.8000000715255737,
                    0.279005229473114,
                    0.17226345837116241,
                    1
                ],
                "metallicFactor" : 0,
                "roughnessFactor" : 0.5
            }
        },
        {
            "doubleSided" : true,
            "name" : "appear_mat2",
            "pbrMetallicRoughness" : {
                "baseColorFactor" : [
                    0.017606956884264946,
                    0.25980105996131897,
                    0.010698811151087284,
                    1
                ],
                "metallicFactor" : 0,
                "roughnessFactor" : 0.5
            }
        }
    ],
    "meshes" : [
        {
            "name" : "state1_mesh",
            "primitives" : [
                {
                    "attributes" : {
                        "POSITION" : 0,
                        "NORMAL" : 1,
                        "TEXCOORD_0" : 2
                    },
                    "indices" : 3,
                    "material" : 0
                }
            ]
        },
        {
            "name" : "state2_mesh",
            "primitives" : [
                {
                    "attributes" : {
                        "POSITION" : 4,
                        "NORMAL" : 5,
                        "TEXCOORD_0" : 6
                    },
                    "indices" : 3,
                    "material" : 1
                }
            ]
        },
        {
            "name" : "state3_mesh",
            "primitives" : [
                {
                    "attributes" : {
                        "POSITION" : 7,
                        "NORMAL" : 8,
                        "TEXCOORD_0" : 9
                    },
                    "indices" : 3,
                    "material" : 2
                }
            ]
        },
        {
            "name" : "plate1_mesh",
            "primitives" : [
                {
                    "attributes" : {
                        "POSITION" : 10,
                        "NORMAL" : 11,
                        "TEXCOORD_0" : 12
                    },
                    "indices" : 3,
                    "material" : 3
                }
            ]
        },
        {
            "name" : "plate2_mesh",
            "primitives" : [
                {
                    "attributes" : {
                        "POSITION" : 13,
                        "NORMAL" : 14,
                        "TEXCOORD_0" : 15
                    },
                    "indices" : 3,
                    "material" : 4
                }
            ]
        }
    ],
    "accessors" : [
        {
            "bufferView" : 0,
            "componentType" : 5126,
            "count" : 192,
            "max" : [
                1,
                1,
                1
            ],
            "min" : [
                -1,
                -1,
                -1
            ],
            "type" : "VEC3"
        },
        {
            "bufferView" : 1,
            "componentType" : 5126,
            "count" : 192,
            "type" : "VEC3"
        },
        {
            "bufferView" : 2,
            "componentType" : 5126,
            "count" : 192,
            "type" : "VEC2"
        },
        {
            "bufferView" : 3,
            "componentType" : 5123,
            "count" : 372,
            "type" : "SCALAR"
        },
        {
            "bufferView" : 4,
            "componentType" : 5126,
            "count" : 192,
            "max" : [
                1,
                1,
                1
            ],
            "min" : [
                -1,
                -1,
                -1
            ],
            "type" : "VEC3"
        },
        {
            "bufferView" : 5,
            "componentType" : 5126,
            "count" : 192,
            "type" : "VEC3"
        },
        {
            "bufferView" : 6,
            "componentType" : 5126,
            "count" : 192,
            "type" : "VEC2"
        },
        {
            "bufferView" : 7,
            "componentType" : 5126,
            "count" : 192,
            "max" : [
                1,
                1,
                1
            ],
            "min" : [
                -1,
                -1,
                -1
            ],
            "type" : "VEC3"
        },
        {
            "bufferView" : 8,
            "componentType" : 5126,
            "count" : 192,
            "type" : "VEC3"
        },
        {
            "bufferView" : 9,
            "componentType" : 5126,
            "count" : 192,
            "type" : "VEC2"
        },
        {
            "bufferView" : 10,
            "componentType" : 5126,
            "count" : 192,
            "max" : [
                1,
                1,
                1
            ],
            "min" : [
                -1,
                -1,
                -1
            ],
            "type" : "VEC3"
        },
        {
            "bufferView" : 11,
            "componentType" : 5126,
            "count" : 192,
            "type" : "VEC3"
        },
        {
            "bufferView" : 12,
            "componentType" : 5126,
            "count" : 192,
            "type" : "VEC2"
        },
        {
            "bufferView" : 13,
            "componentType" : 5126,
            "count" : 192,
            "max" : [
                1,
                1,
                1
            ],
            "min" : [
                -1,
                -1,
                -1
            ],
            "type" : "VEC3"
        },
        {
            "bufferView" : 14,
            "componentType" : 5126,
            "count" : 192,
            "type" : "VEC3"
        },
        {
            "bufferView" : 15,
            "componentType" : 5126,
            "count" : 192,
            "type" : "VEC2"
        }
    ],
    "bufferViews" : [
        {
            "buffer" : 0,
            "byteLength" : 2304,
            "byteOffset" : 0
        },
        {
            "buffer" : 0,
            "byteLength" : 2304,
            "byteOffset" : 2304
        },
        {
            "buffer" : 0,
            "byteLength" : 1536,
            "byteOffset" : 4608
        },
        {
            "buffer" : 0,
            "byteLength" : 744,
            "byteOffset" : 6144
        },
        {
            "buffer" : 0,
            "byteLength" : 2304,
            "byteOffset" : 6888
        },
        {
            "buffer" : 0,
            "byteLength" : 2304,
            "byteOffset" : 9192
        },
        {
            "buffer" : 0,
            "byteLength" : 1536,
            "byteOffset" : 11496
        },
        {
            "buffer" : 0,
            "byteLength" : 2304,
            "byteOffset" : 13032
        },
        {
            "buffer" : 0,
            "byteLength" : 2304,
            "byteOffset" : 15336
        },
        {
            "buffer" : 0,
            "byteLength" : 1536,
            "byteOffset" : 17640
        },
        {
            "buffer" : 0,
            "byteLength" : 2304,
            "byteOffset" : 19176
        },
        {
            "buffer" : 0,
            "byteLength" : 2304,
            "byteOffset" : 21480
        },
        {
            "buffer" : 0,
            "byteLength" : 1536,
            "byteOffset" : 23784
        },
        {
            "buffer" : 0,
            "byteLength" : 2304,
            "byteOffset" : 25320
        },
        {
            "buffer" : 0,
            "byteLength" : 2304,
            "byteOffset" : 27624
        },
        {
            "buffer" : 0,
            "byteLength" : 1536,
            "byteOffset" : 29928
        }
    ],
    "buffers" : [
        {
            "byteLength" : 31464,
            "uri" : "data:application/octet-stream;base64,"
        }
    ]
}
