{
    "asset" : {
        "generator" : "Khronos glTF Blender I/O v1.0.5",
        "version" : "2.0"
    },
    "extensionsUsed" : [
        "KHR_lights_punctual"
    ],
    "extensionsRequired" : [
        "KHR_lights_punctual"
    ],
    "extensions" : {
        "KHR_lights_punctual" : {
            "lights" : [
                {
                    "color" : [
                        1,
                        1,
                        1
                    ],
                    "intensity" : 1000,
                    "type" : "point",
                    "name" : "Light"
                }
            ]
        }
    },
    "scene" : 0,
    "scenes" : [
        {
            "extras" : {
                "glTF2ExportSettings" : {
                    "export_extras" : 1,
                    "export_format" : "GLTF_EMBEDDED",
                    "export_lights" : 1
                }
            },
            "name" : "Scene",
            "nodes" : [
                1,
                2,
                4,
                7,
                10
            ]
        }
    ],
    "nodes" : [
        {
            "extensions" : {
                "KHR_lights_punctual" : {
                    "light" : 0
                }
            },
            "name" : "Light_Orientation",
            "rotation" : [
                -0.7071067690849304,
                0,
                0,
                0.7071067690849304
            ]
        },
        {
            "children" : [
                0
            ],
            "name" : "Light",
            "rotation" : [
                0.16907575726509094,
                0.7558803558349609,
                -0.27217137813568115,
                0.570947527885437
            ],
            "translation" : [
                -4.214735984802246,
                5.903861999511719,
                8.017301559448242
            ]
        },
        {
            "name" : "Camera",
            "rotation" : [
                0.483536034822464,
                0.33687159419059753,
                -0.20870360732078552,
                0.7804827094078064
            ],
            "translation" : [
                7.358891487121582,
                4.958309173583984,
                6.925790786743164
            ]
        },
        {
            "mesh" : 0,
            "name" : "Bar",
            "rotation" : [
                -0.7071068286895752,
                0,
                0,
                0.7071067690849304
            ],
            "scale" : [
                0.4000000059604645,
                2,
                0.9749999642372131
            ],
            "translation" : [
                0,
                0,
                -2.911318778991699
            ]
        },
        {
            "children" : [
                3
            ],
            "mesh" : 1,
            "name" : "Axis",
            "rotation" : [
                0.5,
                0.5,
                0.5,
                0.4999999701976776
            ],
            "scale" : [
                0.5,
                0.20000000298023224,
                0.5
            ],
            "translation" : [
                -5.270692825317383,
                0,
                0
            ]
        },
        {
            "mesh" : 2,
            "name" : "Mercure",
            "rotation" : [
                -0.7071068286895752,
                0,
                0,
                0.7071067690849304
            ],
            "scale" : [
                0.25999999046325684,
                0.5,
                0.75
            ],
            "translation" : [
                0,
                0,
                -0.5
            ]
        },
        {
            "mesh" : 3,
            "name" : "Thermo_Back",
            "rotation" : [
                -0.7071068286895752,
                0,
                0,
                0.7071067690849304
            ],
            "scale" : [
                0.4000000059604645,
                2,
                0.5
            ],
            "translation" : [
                0,
                0,
                -2.8885130882263184
            ]
        },
        {
            "children" : [
                5,
                6
            ],
            "mesh" : 4,
            "name" : "Thermo_Base",
            "rotation" : [
                0.7071067690849304,
                0,
                0,
                0.7071067690849304
            ],
            "scale" : [
                0.5,
                0.20000000298023224,
                0.5
            ]
        },
        {
            "mesh" : 5,
            "name" : "plate1",
            "scale" : [
                0.6249998807907104,
                0.4000000059604645,
                0.6249998807907104
            ]
        },
        {
            "mesh" : 6,
            "name" : "plate2",
            "scale" : [
                0.6249998807907104,
                0.4000000059604645,
                0.6249998807907104
            ]
        },
        {
            "children" : [
                8,
                9
            ],
            "extras" : {
                "view" : "plate2"
            },
            "name" : "Cameleon",
            "scale" : [
                0.800000011920929,
                0.5,
                0.800000011920929
            ],
            "translation" : [
                3,
                0,
                0
            ]
        }
    ],
    "animations" : [
        {
            "channels" : [
                {
                    "sampler" : 0,
                    "target" : {
                        "node" : 4,
                        "path" : "rotation"
                    }
                }
            ],
            "name" : "pull",
            "samplers" : [
                {
                    "input" : 23,
                    "interpolation" : "LINEAR",
                    "output" : 24
                }
            ]
        },
        {
            "channels" : [
                {
                    "sampler" : 0,
                    "target" : {
                        "node" : 5,
                        "path" : "translation"
                    }
                },
                {
                    "sampler" : 1,
                    "target" : {
                        "node" : 5,
                        "path" : "scale"
                    }
                }
            ],
            "name" : "heat",
            "samplers" : [
                {
                    "input" : 23,
                    "interpolation" : "LINEAR",
                    "output" : 25
                },
                {
                    "input" : 23,
                    "interpolation" : "LINEAR",
                    "output" : 26
                }
            ]
        }
    ],
    "materials" : [
        {
            "doubleSided" : true,
            "name" : "Reddish",
            "pbrMetallicRoughness" : {
                "baseColorFactor" : [
                    0.8000000715255737,
                    0.05053232982754707,
                    0.061946164816617966,
                    1
                ],
                "metallicFactor" : 0,
                "roughnessFactor" : 0.5
            }
        },
        {
            "doubleSided" : true,
            "name" : "thermo_mat_cold",
            "pbrMetallicRoughness" : {
                "baseColorFactor" : [
                    0.05176461488008499,
                    0.3574345111846924,
                    0.8000000715255737,
                    1
                ],
                "metallicFactor" : 0,
                "roughnessFactor" : 0.5
            }
        },
        {
            "doubleSided" : true,
            "name" : "thermo_mat_warm",
            "pbrMetallicRoughness" : {
                "baseColorFactor" : [
                    0.8000000715255737,
                    0.11717746406793594,
                    0.1466873586177826,
                    1
                ],
                "metallicFactor" : 0,
                "roughnessFactor" : 0.5
            }
        }
    ],
    "meshes" : [
        {
            "extras" : {
                "mouseEvent" : "true"
            },
            "name" : "Bar_Mesh",
            "primitives" : [
                {
                    "attributes" : {
                        "POSITION" : 0,
                        "NORMAL" : 1,
                        "TEXCOORD_0" : 2
                    },
                    "indices" : 3
                }
            ]
        },
        {
            "extras" : {
                "parameter" : "pull"
            },
            "name" : "Axis_Mesh",
            "primitives" : [
                {
                    "attributes" : {
                        "POSITION" : 4,
                        "NORMAL" : 5,
                        "TEXCOORD_0" : 6
                    },
                    "indices" : 7
                }
            ]
        },
        {
            "extras" : {
                "parameter" : "heat"
            },
            "name" : "raise",
            "primitives" : [
                {
                    "attributes" : {
                        "POSITION" : 8,
                        "NORMAL" : 9,
                        "TEXCOORD_0" : 10
                    },
                    "indices" : 3,
                    "material" : 0
                }
            ]
        },
        {
            "name" : "Cube",
            "primitives" : [
                {
                    "attributes" : {
                        "POSITION" : 11,
                        "NORMAL" : 12,
                        "TEXCOORD_0" : 13
                    },
                    "indices" : 3
                }
            ]
        },
        {
            "extras" : {
                "parameter" : "heat"
            },
            "name" : "Cylinder",
            "primitives" : [
                {
                    "attributes" : {
                        "POSITION" : 14,
                        "NORMAL" : 15,
                        "TEXCOORD_0" : 16
                    },
                    "indices" : 7
                }
            ]
        },
        {
            "name" : "plate1_mesh",
            "primitives" : [
                {
                    "attributes" : {
                        "POSITION" : 17,
                        "NORMAL" : 18,
                        "TEXCOORD_0" : 19
                    },
                    "indices" : 7,
                    "material" : 1
                }
            ]
        },
        {
            "name" : "plate2_mesh",
            "primitives" : [
                {
                    "attributes" : {
                        "POSITION" : 20,
                        "NORMAL" : 21,
                        "TEXCOORD_0" : 22
                    },
                    "indices" : 7,
                    "material" : 2
                }
            ]
        }
    ],
    "accessors" : [
        {
            "bufferView" : 0,
            "componentType" : 5126,
            "count" : 24,
            "max" : [
                1,
                1,
                1
            ],
            "min" : [
                -1,
                -1,
                -1
            ],
            "type" : "VEC3"
        },
        {
            "bufferView" : 1,
            "componentType" : 5126,
            "count" : 24,
            "type" : "VEC3"
        },
        {
            "bufferView" : 2,
            "componentType" : 5126,
            "count" : 24,
            "type" : "VEC2"
        },
        {
            "bufferView" : 3,
            "componentType" : 5123,
            "count" : 36,
            "type" : "SCALAR"
        },
        {
            "bufferView" : 4,
            "componentType" : 5126,
            "count" : 192,
            "max" : [
                1,
                1,
                1
            ],
            "min" : [
                -1,
                -1,
                -1
            ],
            "type" : "VEC3"
        },
        {
            "bufferView" : 5,
            "componentType" : 5126,
            "count" : 192,
            "type" : "VEC3"
        },
        {
            "bufferView" : 6,
            "componentType" : 5126,
            "count" : 192,
            "type" : "VEC2"
        },
        {
            "bufferView" : 7,
            "componentType" : 5123,
            "count" : 372,
            "type" : "SCALAR"
        },
        {
            "bufferView" : 8,
            "componentType" : 5126,
            "count" : 24,
            "max" : [
                1,
                1,
                1
            ],
            "min" : [
                -1,
                -1,
                -1
            ],
            "type" : "VEC3"
        },
        {
            "bufferView" : 9,
            "componentType" : 5126,
            "count" : 24,
            "type" : "VEC3"
        },
        {
            "bufferView" : 10,
            "componentType" : 5126,
            "count" : 24,
            "type" : "VEC2"
        },
        {
            "bufferView" : 11,
            "componentType" : 5126,
            "count" : 24,
            "max" : [
                1,
                1,
                1
            ],
            "min" : [
                -1,
                -1,
                -1
            ],
            "type" : "VEC3"
        },
        {
            "bufferView" : 12,
            "componentType" : 5126,
            "count" : 24,
            "type" : "VEC3"
        },
        {
            "bufferView" : 13,
            "componentType" : 5126,
            "count" : 24,
            "type" : "VEC2"
        },
        {
            "bufferView" : 14,
            "componentType" : 5126,
            "count" : 192,
            "max" : [
                1,
                1,
                1
            ],
            "min" : [
                -1,
                -1,
                -1
            ],
            "type" : "VEC3"
        },
        {
            "bufferView" : 15,
            "componentType" : 5126,
            "count" : 192,
            "type" : "VEC3"
        },
        {
            "bufferView" : 16,
            "componentType" : 5126,
            "count" : 192,
            "type" : "VEC2"
        },
        {
            "bufferView" : 17,
            "componentType" : 5126,
            "count" : 192,
            "max" : [
                1,
                1,
                1
            ],
            "min" : [
                -1,
                -1,
                -1
            ],
            "type" : "VEC3"
        },
        {
            "bufferView" : 18,
            "componentType" : 5126,
            "count" : 192,
            "type" : "VEC3"
        },
        {
            "bufferView" : 19,
            "componentType" : 5126,
            "count" : 192,
            "type" : "VEC2"
        },
        {
            "bufferView" : 20,
            "componentType" : 5126,
            "count" : 192,
            "max" : [
                1,
                1,
                1
            ],
            "min" : [
                -1,
                -1,
                -1
            ],
            "type" : "VEC3"
        },
        {
            "bufferView" : 21,
            "componentType" : 5126,
            "count" : 192,
            "type" : "VEC3"
        },
        {
            "bufferView" : 22,
            "componentType" : 5126,
            "count" : 192,
            "type" : "VEC2"
        },
        {
            "bufferView" : 23,
            "componentType" : 5126,
            "count" : 101,
            "max" : [
                4.166666666666667
            ],
            "min" : [
                0
            ],
            "type" : "SCALAR"
        },
        {
            "bufferView" : 24,
            "componentType" : 5126,
            "count" : 101,
            "type" : "VEC4"
        },
        {
            "bufferView" : 25,
            "componentType" : 5126,
            "count" : 101,
            "type" : "VEC3"
        },
        {
            "bufferView" : 26,
            "componentType" : 5126,
            "count" : 101,
            "type" : "VEC3"
        }
    ],
    "bufferViews" : [
        {
            "buffer" : 0,
            "byteLength" : 288,
            "byteOffset" : 0
        },
        {
            "buffer" : 0,
            "byteLength" : 288,
            "byteOffset" : 288
        },
        {
            "buffer" : 0,
            "byteLength" : 192,
            "byteOffset" : 576
        },
        {
            "buffer" : 0,
            "byteLength" : 72,
            "byteOffset" : 768
        },
        {
            "buffer" : 0,
            "byteLength" : 2304,
            "byteOffset" : 840
        },
        {
            "buffer" : 0,
            "byteLength" : 2304,
            "byteOffset" : 3144
        },
        {
            "buffer" : 0,
            "byteLength" : 1536,
            "byteOffset" : 5448
        },
        {
            "buffer" : 0,
            "byteLength" : 744,
            "byteOffset" : 6984
        },
        {
            "buffer" : 0,
            "byteLength" : 288,
            "byteOffset" : 7728
        },
        {
            "buffer" : 0,
            "byteLength" : 288,
            "byteOffset" : 8016
        },
        {
            "buffer" : 0,
            "byteLength" : 192,
            "byteOffset" : 8304
        },
        {
            "buffer" : 0,
            "byteLength" : 288,
            "byteOffset" : 8496
        },
        {
            "buffer" : 0,
            "byteLength" : 288,
            "byteOffset" : 8784
        },
        {
            "buffer" : 0,
            "byteLength" : 192,
            "byteOffset" : 9072
        },
        {
            "buffer" : 0,
            "byteLength" : 2304,
            "byteOffset" : 9264
        },
        {
            "buffer" : 0,
            "byteLength" : 2304,
            "byteOffset" : 11568
        },
        {
            "buffer" : 0,
            "byteLength" : 1536,
            "byteOffset" : 13872
        },
        {
            "buffer" : 0,
            "byteLength" : 2304,
            "byteOffset" : 15408
        },
        {
            "buffer" : 0,
            "byteLength" : 2304,
            "byteOffset" : 17712
        },
        {
            "buffer" : 0,
            "byteLength" : 1536,
            "byteOffset" : 20016
        },
        {
            "buffer" : 0,
            "byteLength" : 2304,
            "byteOffset" : 21552
        },
        {
            "buffer" : 0,
            "byteLength" : 2304,
            "byteOffset" : 23856
        },
        {
            "buffer" : 0,
            "byteLength" : 1536,
            "byteOffset" : 26160
        },
        {
            "buffer" : 0,
            "byteLength" : 404,
            "byteOffset" : 27696
        },
        {
            "buffer" : 0,
            "byteLength" : 1616,
            "byteOffset" : 28100
        },
        {
            "buffer" : 0,
            "byteLength" : 1212,
            "byteOffset" : 29716
        },
        {
            "buffer" : 0,
            "byteLength" : 1212,
            "byteOffset" : 30928
        }
    ],
    "buffers" : [
        {
            "byteLength" : 32140,
            "uri" : "data:application/octet-stream;base64,"
        }
    ]
}
