{
    "asset" : {
        "generator" : "Khronos glTF Blender I/O v1.0.5",
        "version" : "2.0"
    },
    "extensionsUsed" : [
        "KHR_lights_punctual"
    ],
    "extensionsRequired" : [
        "KHR_lights_punctual"
    ],
    "extensions" : {
        "KHR_lights_punctual" : {
            "lights" : [
                {
                    "color" : [
                        1,
                        1,
                        1
                    ],
                    "intensity" : 100,
                    "type" : "point",
                    "name" : "Light"
                }
            ]
        }
    },
    "scene" : 0,
    "scenes" : [
        {
            "name" : "Scene",
            "nodes" : [
                0,
                2,
                4,
                5,
                6,
                7
            ]
        }
    ],
    "nodes" : [
        {
            "mesh" : 0,
            "name" : "Cube",
            "translation" : [
                -3.4169461727142334,
                0,
                0
            ]
        },
        {
            "extensions" : {
                "KHR_lights_punctual" : {
                    "light" : 0
                }
            },
            "name" : "Light_Orientation",
            "rotation" : [
                -0.7071067690849304,
                0,
                0,
                0.7071067690849304
            ]
        },
        {
            "children" : [
                1
            ],
            "name" : "Light",
            "rotation" : [
                0.16907575726509094,
                0.7558803558349609,
                -0.27217137813568115,
                0.570947527885437
            ],
            "translation" : [
                0.01773834228515625,
                4.649414539337158,
                8.2783784866333
            ]
        },
        {
            "camera" : 0,
            "name" : "Camera_Orientation",
            "rotation" : [
                -0.7071067690849304,
                0,
                0,
                0.7071067690849304
            ]
        },
        {
            "children" : [
                3
            ],
            "name" : "Camera",
            "rotation" : [
                0.5691766142845154,
                0.19321641325950623,
                -0.13976077735424042,
                0.7868750095367432
            ],
            "translation" : [
                6.978891849517822,
                5.708309173583984,
                12.505789756774902
            ]
        },
        {
            "mesh" : 1,
            "name" : "Cube.001",
            "translation" : [
                3.577535390853882,
                0,
                0
            ]
        },
        {
            "mesh" : 2,
            "name" : "Office",
            "rotation" : [
                0,
                0,
                -1,
                -4.371138828673793e-08
            ],
            "translation" : [
                -3.4169461727142334,
                1.3785078525543213,
                0
            ]
        },
        {
            "mesh" : 3,
            "name" : "Kitchen",
            "rotation" : [
                0,
                0,
                -1,
                -4.371138828673793e-08
            ],
            "translation" : [
                3.577535390853882,
                1.2508808374404907,
                0
            ]
        }
    ],
    "cameras" : [
        {
            "name" : "Camera",
            "perspective" : {
                "yfov" : 0.4578223484558942,
                "zfar" : 100,
                "znear" : 0.10000000149011612
            },
            "type" : "perspective"
        }
    ],
    "materials" : [
        {
            "doubleSided" : true,
            "name" : "Material",
            "pbrMetallicRoughness" : {
                "baseColorFactor" : [
                    0.800000011920929,
                    0.800000011920929,
                    0.800000011920929,
                    1
                ],
                "metallicFactor" : 0,
                "roughnessFactor" : 0.4000000059604645
            }
        },
        {
            "doubleSided" : true,
            "name" : "Mat_Bronze",
            "pbrMetallicRoughness" : {
                "baseColorFactor" : [
                    0.060188017785549164,
                    0.06779887527227402,
                    0.014297647401690483,
                    1
                ],
                "metallicFactor" : 0,
                "roughnessFactor" : 0.5
            }
        },
        {
            "doubleSided" : true,
            "name" : "Mat_Green",
            "pbrMetallicRoughness" : {
                "baseColorFactor" : [
                    0.1687239110469818,
                    0.7991032600402832,
                    0.07240734994411469,
                    1
                ],
                "metallicFactor" : 0,
                "roughnessFactor" : 0.5
            }
        }
    ],
    "meshes" : [
        {
            "name" : "Cube",
            "primitives" : [
                {
                    "attributes" : {
                        "POSITION" : 0,
                        "NORMAL" : 1,
                        "TEXCOORD_0" : 2
                    },
                    "indices" : 3,
                    "material" : 0
                }
            ]
        },
        {
            "name" : "Cube.001",
            "primitives" : [
                {
                    "attributes" : {
                        "POSITION" : 4,
                        "NORMAL" : 5,
                        "TEXCOORD_0" : 6
                    },
                    "indices" : 3,
                    "material" : 0
                }
            ]
        },
        {
            "extras" : {
                "mouseEvent" : "true",
                "config" : "slider",
                "mutateColor" : "DE7CD9"
            },
            "name" : "Cone",
            "primitives" : [
                {
                    "attributes" : {
                        "POSITION" : 7,
                        "NORMAL" : 8,
                        "TEXCOORD_0" : 9
                    },
                    "indices" : 10,
                    "material" : 1
                }
            ]
        },
        {
            "extras" : {
                "mouseEvent" : "true",
                "config" : "slider",
                "mutateColor" : "8A47E7"
            },
            "name" : "Cone.001",
            "primitives" : [
                {
                    "attributes" : {
                        "POSITION" : 11,
                        "NORMAL" : 12,
                        "TEXCOORD_0" : 13
                    },
                    "indices" : 10,
                    "material" : 2
                }
            ]
        }
    ],
    "accessors" : [
        {
            "bufferView" : 0,
            "componentType" : 5126,
            "count" : 24,
            "max" : [
                1,
                1,
                1
            ],
            "min" : [
                -1,
                -1,
                -1
            ],
            "type" : "VEC3"
        },
        {
            "bufferView" : 1,
            "componentType" : 5126,
            "count" : 24,
            "type" : "VEC3"
        },
        {
            "bufferView" : 2,
            "componentType" : 5126,
            "count" : 24,
            "type" : "VEC2"
        },
        {
            "bufferView" : 3,
            "componentType" : 5123,
            "count" : 36,
            "type" : "SCALAR"
        },
        {
            "bufferView" : 4,
            "componentType" : 5126,
            "count" : 24,
            "max" : [
                1,
                1,
                1
            ],
            "min" : [
                -1,
                -1,
                -1
            ],
            "type" : "VEC3"
        },
        {
            "bufferView" : 5,
            "componentType" : 5126,
            "count" : 24,
            "type" : "VEC3"
        },
        {
            "bufferView" : 6,
            "componentType" : 5126,
            "count" : 24,
            "type" : "VEC2"
        },
        {
            "bufferView" : 7,
            "componentType" : 5126,
            "count" : 128,
            "max" : [
                1,
                1,
                1
            ],
            "min" : [
                -1,
                -1,
                -1
            ],
            "type" : "VEC3"
        },
        {
            "bufferView" : 8,
            "componentType" : 5126,
            "count" : 128,
            "type" : "VEC3"
        },
        {
            "bufferView" : 9,
            "componentType" : 5126,
            "count" : 128,
            "type" : "VEC2"
        },
        {
            "bufferView" : 10,
            "componentType" : 5123,
            "count" : 186,
            "type" : "SCALAR"
        },
        {
            "bufferView" : 11,
            "componentType" : 5126,
            "count" : 128,
            "max" : [
                1,
                1,
                1
            ],
            "min" : [
                -1,
                -1,
                -1
            ],
            "type" : "VEC3"
        },
        {
            "bufferView" : 12,
            "componentType" : 5126,
            "count" : 128,
            "type" : "VEC3"
        },
        {
            "bufferView" : 13,
            "componentType" : 5126,
            "count" : 128,
            "type" : "VEC2"
        }
    ],
    "bufferViews" : [
        {
            "buffer" : 0,
            "byteLength" : 288,
            "byteOffset" : 0
        },
        {
            "buffer" : 0,
            "byteLength" : 288,
            "byteOffset" : 288
        },
        {
            "buffer" : 0,
            "byteLength" : 192,
            "byteOffset" : 576
        },
        {
            "buffer" : 0,
            "byteLength" : 72,
            "byteOffset" : 768
        },
        {
            "buffer" : 0,
            "byteLength" : 288,
            "byteOffset" : 840
        },
        {
            "buffer" : 0,
            "byteLength" : 288,
            "byteOffset" : 1128
        },
        {
            "buffer" : 0,
            "byteLength" : 192,
            "byteOffset" : 1416
        },
        {
            "buffer" : 0,
            "byteLength" : 1536,
            "byteOffset" : 1608
        },
        {
            "buffer" : 0,
            "byteLength" : 1536,
            "byteOffset" : 3144
        },
        {
            "buffer" : 0,
            "byteLength" : 1024,
            "byteOffset" : 4680
        },
        {
            "buffer" : 0,
            "byteLength" : 372,
            "byteOffset" : 5704
        },
        {
            "buffer" : 0,
            "byteLength" : 1536,
            "byteOffset" : 6076
        },
        {
            "buffer" : 0,
            "byteLength" : 1536,
            "byteOffset" : 7612
        },
        {
            "buffer" : 0,
            "byteLength" : 1024,
            "byteOffset" : 9148
        }
    ],
    "buffers" : [
        {
            "byteLength" : 10172,
            "uri" : "data:application/octet-stream;base64,"
        }
    ]
}
